<?xml version="1.0" encoding="iso-8859-1"?>
<!-- Generator: Adobe Illustrator 19.0.0, SVG Export Plug-In . SVG Version: 6.00 Build 0)  -->
<svg version="1.1" id="Capa_1" xmlns="http://www.w3.org/2000/svg" x="0px"
     y="0px"
     viewBox="0 0 512 512" style="enable-background:new 0 0 512 512;" xml:space="preserve">

	<path d="M215.57,494.93c-1.86-1.86-4.44-2.93-7.07-2.93s-5.21,1.069-7.07,2.93c-1.86,1.86-2.93,4.44-2.93,7.07
			s1.07,5.21,2.93,7.069c1.86,1.86,4.44,2.931,7.07,2.931s5.21-1.07,7.07-2.931c1.86-1.859,2.93-4.439,2.93-7.069
			S217.43,496.79,215.57,494.93z"/>

    <path d="M412,452h-2.565c-1.597-10.677-6.524-20.375-13.935-27.856v-18.939c0-22.215-13.004-42.647-33.13-52.055l-3.731-1.744
			V277.74c0-13.826-8.255-26.174-21.031-31.457L293.652,228.1c-0.016-0.007-0.032-0.013-0.049-0.02l-3.464-1.433v-9.678
			c12.113-9.91,19.861-24.967,19.861-41.803V197c0,5.522,4.477,10,10,10s10-4.478,10-10v-45.693c0-5.522-4.477-10-10-10
			c-0.009,0-0.018,0.001-0.028,0.001v-8.302c0-19.312-8.614-36.639-22.187-48.378L265.369,6.181C263.823,2.44,260.175,0,256.127,0
			s-7.696,2.44-9.242,6.181L214.61,84.285c-13.802,11.743-22.582,29.221-22.582,48.721v8.302c-0.009,0-0.018-0.001-0.028-0.001
			c-5.523,0-10,4.478-10,10V197c0,5.522,4.477,10,10,10s10-4.478,10-10v-21.834c0,16.836,7.748,31.893,19.861,41.803v9.678
			l-47.469,19.635c-12.776,5.284-21.031,17.632-21.031,31.458v73.666l-3.731,1.744c-20.125,9.407-33.13,29.84-33.13,52.055v18.939
			c-7.41,7.481-12.338,17.179-13.935,27.856H100c-5.523,0-10,4.478-10,10v40c0,5.522,4.477,10,10,10h69.5c5.523,0,10-4.478,10-10
			c0-5.522-4.477-10-10-10H110v-20h292v20H250.5c-5.523,0-10,4.478-10,10c0,5.522,4.477,10,10,10H412c5.523,0,10-4.478,10-10v-40
			C422,456.478,417.523,452,412,452z M202,155.61v-0.611c0.009,0,0.018,0.001,0.028,0.001c0.001,0,0.002,0,0.003,0
			C202.019,155.203,202,155.404,202,155.61z M256.127,36.185l14.256,34.5c-4.627-1.068-9.437-1.651-14.383-1.651
			c-4.846,0-9.562,0.56-14.102,1.586L256.127,36.185z M212.849,124.569c3.946-20.222,21.79-35.535,43.151-35.535
			c21.361,0,39.205,15.313,43.151,35.535c-6.998-7.227-16.791-11.733-27.622-11.733c-5.388,0-10.663,1.12-15.529,3.271
			c-4.868-2.152-10.142-3.271-15.529-3.271C229.64,112.836,219.847,117.342,212.849,124.569z M290,151.307c0,0.74,0,23.859,0,23.859
			c0,18.748-15.252,34-34,34s-34-15.252-34-34c0,0,0-23.12,0-23.859c0-10.185,8.286-18.471,18.471-18.471
			c3.587,0,7.068,1.033,10.066,2.989c3.32,2.166,7.607,2.165,10.927-0.001c2.997-1.955,6.478-2.988,10.065-2.988
			C281.714,132.836,290,141.122,290,151.307z M182.036,264.763l53.647-22.19c3.739-1.546,6.178-5.193,6.178-9.24v-6.058
			c4.51,1.225,9.247,1.891,14.139,1.891s9.629-0.666,14.139-1.891v6.058c0,2.607,1.017,5.045,2.737,6.866l-66.014,66.014V305
			c0-5.522-4.477-10-10-10s-10,4.478-10,10v37c0,2.853,1.218,5.569,3.349,7.467l29.75,26.5c1.832,1.632,4.199,2.533,6.651,2.533
			h49.584c-2.846,3.362-7.095,5.5-11.834,5.5h-63.55l-27.45-21.825V277.74h-0.001C173.361,272.037,176.766,266.943,182.036,264.763z
			 M122.966,452c2.377-9.327,9.047-17.076,18.341-20.729L148,428.64l6.693,2.631c9.294,3.653,15.964,11.402,18.34,20.729H122.966z
			 M194.966,452c2.376-9.327,9.046-17.076,18.34-20.729L220,428.64l6.693,2.631c9.294,3.653,15.964,11.402,18.34,20.729H194.966z
			 M266.966,452c2.376-9.327,9.046-17.076,18.34-20.729L292,428.64l6.693,2.631c9.294,3.653,15.964,11.402,18.34,20.729H266.966z
			 M328.001,429.366c-5.484-7.328-12.999-13.175-21.989-16.709l-10.353-4.069c-2.351-0.924-4.966-0.924-7.316,0l-10.353,4.069
			c-8.99,3.534-16.505,9.381-21.989,16.709c-5.484-7.328-12.999-13.175-21.989-16.709l-10.353-4.069
			c-2.351-0.924-4.966-0.924-7.316,0l-10.353,4.069c-8.99,3.534-16.505,9.381-21.989,16.709
			c-5.484-7.328-12.999-13.175-21.989-16.709l-10.353-4.069c-2.351-0.924-4.966-0.924-7.316,0l-7.842,3.082v-6.465
			c-0.001-13.392,7.258-25.778,18.724-32.418c0.538,0.756,1.171,1.45,1.913,2.04l33.959,27c1.77,1.407,3.963,2.173,6.224,2.173
			h67.041c19.575,0,35.5-15.925,35.5-35.5c0-5.522-4.477-10-10-10H244.83l45.3-45.3c3.905-3.905,3.905-10.237,0-14.143
			c-3.905-3.904-10.237-3.904-14.143,0l-52.906,52.906l-16.22-14.448v-3.018l85.35-85.35l37.753,15.616
			c5.27,2.179,8.675,7.272,8.675,12.976v71.617l-18.474,18.474c-3.905,3.905-3.906,10.237,0,14.143
			c1.953,1.952,4.512,2.929,7.071,2.929c2.559,0,5.119-0.977,7.071-2.929l13.536-13.536l6.059,2.832
			c13.121,6.133,21.599,19.453,21.599,33.936v6.465l-7.842-3.082c-2.351-0.924-4.966-0.924-7.316,0l-10.353,4.069
			C341,416.191,333.485,422.038,328.001,429.366z M338.966,452c2.376-9.327,9.046-17.076,18.34-20.729L364,428.64l6.693,2.631
			c9.294,3.653,15.964,11.402,18.34,20.729H338.966z"/>

    <path d="M314.92,274.27c-1.86-1.859-4.44-2.93-7.07-2.93c-2.64,0-5.21,1.07-7.08,2.93c-1.86,1.86-2.92,4.44-2.92,7.07
			s1.06,5.21,2.92,7.07c1.87,1.86,4.44,2.93,7.08,2.93c2.63,0,5.21-1.07,7.07-2.93c1.86-1.86,2.93-4.44,2.93-7.07
			S316.78,276.13,314.92,274.27z"/>
</svg>
