<?xml version="1.0"?>
<svg xmlns="http://www.w3.org/2000/svg" id="Layer_3" viewBox="0 0 64 64" width="512" height="512">
    <path d="M63,62H60a1,1,0,0,0,0,2h3a1,1,0,0,0,0-2Z"/>
    <path d="M1,64H56a1,1,0,0,0,0-2H53V52.92a9.48,9.48,0,0,0,6.134-3.04l3.625-4.229A1,1,0,0,0,62,44H49V39.8a7.2,7.2,0,0,0,4.346-3.017l2.819-4.229A1,1,0,0,0,55.333,31H51a1,1,0,0,0,0,2h2.465l-1.783,2.674A5.211,5.211,0,0,1,47.337,38H16.663a5.211,5.211,0,0,1-4.345-2.326L10.535,33H47a1,1,0,0,0,0-2H45V27h.146a6.321,6.321,0,0,0,5.27-2.82l2.417-3.625A1,1,0,0,0,52,19H45V14.6a5.43,5.43,0,0,0,2.484-2.022L49.5,9.555A1,1,0,0,0,48.667,8H41a1,1,0,0,0,0,2h5.8l-.978,1.466A3.437,3.437,0,0,1,42.955,13H21.045a3.437,3.437,0,0,1-2.865-1.534L17.2,10H37a1,1,0,0,0,0-2H33V1a1,1,0,0,0-2,0V8H15.333A1,1,0,0,0,14.5,9.555l2.015,3.021A5.423,5.423,0,0,0,20,14.889V19H19a1,1,0,0,0,0,2H50.131l-1.38,2.07A4.324,4.324,0,0,1,45.146,25H18.854a4.324,4.324,0,0,1-3.605-1.93L13.869,21H15a1,1,0,0,0,0-2H12a1,1,0,0,0-.832,1.555l2.417,3.625A6.321,6.321,0,0,0,18.854,27H20v4H8.667a1,1,0,0,0-.832,1.555l2.819,4.229A7.2,7.2,0,0,0,16,39.959V44H12a1,1,0,0,0,0,2H59.826l-2.211,2.579A7.772,7.772,0,0,1,51.719,51H19a1,1,0,0,0,0,2H51v9H47V57a1,1,0,0,0-2,0v5H40V57a1,1,0,0,0-2,0v5H33V57a1,1,0,0,0-2,0v5H26V57a1,1,0,0,0-2,0v5H19V57a1,1,0,0,0-2,0v5H13V53h2a1,1,0,0,0,0-2H12.281a7.774,7.774,0,0,1-5.9-2.422L4.174,46H8a1,1,0,0,0,0-2H2a1,1,0,0,0-.759,1.651l3.624,4.229A9.483,9.483,0,0,0,11,52.92V62H1a1,1,0,0,0,0,2ZM22,19V15H43v4Zm0,8H43v4H37V29a1,1,0,0,0-2,0v2H30V29a1,1,0,0,0-2,0v2H22ZM40,44V42a1,1,0,0,0-2,0v2H33V42a1,1,0,0,0-2,0v2H26V42a1,1,0,0,0-2,0v2H18V40H47v4Z"/>
    <path d="M52,49a1,1,0,0,0,0-2H51a1,1,0,0,0,0,2Z"/>
    <path d="M47,49a1,1,0,0,0,0-2H46a1,1,0,0,0,0,2Z"/>
</svg>
