<?xml version="1.0" encoding="iso-8859-1"?>
<!-- Generator: Adobe Illustrator 18.0.0, SVG Export Plug-In . SVG Version: 6.00 Build 0)  -->
<!DOCTYPE svg PUBLIC "-//W3C//DTD SVG 1.1//EN" "http://www.w3.org/Graphics/SVG/1.1/DTD/svg11.dtd">
<svg version="1.1" id="Capa_1" xmlns="http://www.w3.org/2000/svg" x="0px" y="0px"
     viewBox="0 0 354 354" style="enable-background:new 0 0 354 354;" xml:space="preserve">
<g>
	<path d="M93.87,142.83c28.289,6.938,43.232,28.082,43.379,28.295c0.368,0.53,0.958,0.839,1.577,0.859
		c0.029,0.002,0.059,0.002,0.087,0.002c1.105,0,2-0.895,2-2c0-0.097-0.007-0.191-0.02-0.285l-0.07-134.618
		c-0.001-0.829-0.514-1.573-1.289-1.868c-0.369-0.141-9.158-3.445-18.888-3.445c-9.002,0-15.792,2.787-20.184,8.287
		c-14.307,17.922-8.37,99.517-8.111,102.98C92.416,141.9,93.029,142.625,93.87,142.83z"/>
    <path d="M154.815,173.154c0,0.706,0.372,1.359,0.979,1.721c0.607,0.359,1.358,0.374,1.98,0.035
		c0.078-0.043,7.903-4.251,18.602-4.251h1.25c10.643,0,18.525,4.21,18.605,4.252c0.298,0.163,0.628,0.243,0.956,0.243
		c0.354,0,0.707-0.094,1.021-0.279c0.607-0.361,0.979-1.015,0.979-1.721l-0.053-120.283c0.109-2.083,1.641-35.293-10.318-47.92
		C185.703,1.666,181.919,0,177,0s-8.703,1.666-11.814,4.951c-11.959,12.627-10.428,45.837-10.318,47.92L154.815,173.154z"/>
    <path d="M214.511,171.895c0.196,0.062,0.398,0.091,0.597,0.091c0.645,0,1.264-0.313,1.645-0.863
		c0.146-0.212,15.021-21.34,43.379-28.293c0.84-0.205,1.453-0.93,1.518-1.793c0.26-3.464,6.196-85.059-8.11-102.981
		c-4.392-5.499-11.182-8.286-20.184-8.286c-9.729,0-18.519,3.305-18.888,3.445c-0.775,0.295-1.288,1.039-1.289,1.868l-0.07,134.902
		C213.107,170.861,213.676,171.635,214.511,171.895z"/>
    <path d="M310.577,160.546c-9.067-3.665-18.453-5.524-27.897-5.524c-25.23,0-49.535,13.652-63.428,35.631
		c-0.354,0.561-0.407,1.26-0.143,1.867c19.433,44.594,7.807,60.057-34.679,81.254c-0.679,0.34-1.106,1.033-1.106,1.791V352
		c0,0.543,0.221,1.065,0.613,1.441c0.373,0.359,0.871,0.559,1.387,0.559c0.025,0,0.053-0.002,0.078-0.002
		c1.239-0.049,4.066-0.135,7.413-0.101c26.784,0.33,43.735-10.104,56.95-35.133c3.254-6.16,8.566-22.953,15.293-44.213
		c12.811-40.496,32.174-101.693,45.85-110.468c0.629-0.403,0.98-1.124,0.91-1.869C311.75,161.469,311.271,160.826,310.577,160.546z"
    />
    <path d="M213.125,235.115c2.322-4.945,4.008-13.088-3.659-32.365c-0.2-0.48-5.056-11.826-19.009-16.5
		c-0.268-0.102-6.619-2.486-12.347-2.666h-2.284c-5.664,0.18-12.016,2.564-12.21,2.641c-14.026,4.699-18.882,16.045-19.094,16.555
		c-7.655,19.248-5.97,27.391-3.648,32.336c3.672,7.824,13.501,15.289,32.856,24.951c0.536,0.328,1.974,1.129,3.269,1.129
		s2.732-0.801,3.269-1.129C199.624,250.404,209.453,242.939,213.125,235.115z"/>
    <path d="M169.569,273.773c-42.485-21.197-54.111-36.66-34.679-81.254c0.265-0.607,0.211-1.307-0.143-1.867
		c-13.893-21.979-38.197-35.631-63.428-35.631c-9.444,0-18.831,1.859-27.897,5.524c-0.693,0.28-1.172,0.923-1.242,1.668
		c-0.07,0.745,0.282,1.466,0.911,1.869c13.675,8.774,33.038,69.974,45.851,110.472c6.726,21.258,12.038,38.049,15.292,44.207
		c13.006,24.633,29.658,35.145,55.684,35.143c0.418,0,0.842-0.002,1.263-0.008c3.374-0.033,6.178,0.053,7.417,0.101
		c0.025,0,0.053,0.002,0.078,0.002c0.516,0,1.014-0.199,1.387-0.559c0.393-0.377,0.613-0.898,0.613-1.441v-76.435
		C170.676,274.807,170.248,274.113,169.569,273.773z"/>
</g>
</svg>
