<?xml version="1.0" encoding="iso-8859-1"?>
<!-- Generator: Adobe Illustrator 18.0.0, SVG Export Plug-In . SVG Version: 6.00 Build 0)  -->
<!DOCTYPE svg PUBLIC "-//W3C//DTD SVG 1.1//EN" "http://www.w3.org/Graphics/SVG/1.1/DTD/svg11.dtd">
<svg version="1.1" id="Capa_1" xmlns="http://www.w3.org/2000/svg" x="0px" y="0px"
	 viewBox="0 0 343.386 343.386" style="enable-background:new 0 0 343.386 343.386;" xml:space="preserve">
<path d="M307.87,113.527c0-12.371-10.03-22.399-22.399-22.399c-10.898,0-21.983,7.852-21.983,18.097l0.012,66.238
	c0,1.931-1.61,4.408-3.541,4.408c-1.928,0-3.494-1.563-3.494-3.494l0.002-112.984c0-12.371-9.984-22.398-22.354-22.398
	c-11.259,0-22.2,7.86-22.2,19.124l0.003,113.969c0.002,1.984-1.607,3.592-3.588,3.592c-1.986,0-3.594-1.607-3.594-3.592
	l-0.019-151.689C204.716,10.029,194.686,0,182.315,0c-12.247,0-22.19,9.83-22.391,22.028v151.206c0,2.014-1.633,3.648-3.645,3.648
	h-0.001h-0.001c-2.015,0-3.647-1.634-3.647-3.648v-7.887c0-0.043,0.01-0.082,0.012-0.124c0.013-20.225,0.077-102.435,0.069-102.476
	c0-10.891-10.84-19.393-22.191-19.395c-12.373,0.002-22.398,10.029-22.398,22.4c0,0,0,164.022,0,165.699
	c0,1.781-1.301,3.216-3.757,3.216c-1.846,0-4.344-1.046-7.438-4.14c-6.826-6.826-19.551-19.553-19.551-19.553
	c-5.143-5.141-11.708-7.844-18.206-7.844c-5.921,0-11.786,2.244-16.473,6.93c-9.828,9.828-9.205,24.369-0.916,36.508
	c0,0,45.253,75.46,125.164,93.525c-2.978-2.154-5.848-4.493-8.572-7.047c-16.844-15.777-26.534-37.171-27.287-60.238
	c-1.266-38.811,29.279-71.414,68.09-72.682c15.379-0.499,30.049,5.02,41.285,15.545c11.234,10.525,17.699,24.796,18.201,40.184
	c0.853,26.128-19.711,48.078-45.839,48.932c-21.626,0.697-39.781-16.311-40.487-37.929c-0.117-3.588,2.697-6.591,6.285-6.708
	c3.567-0.127,6.592,2.695,6.709,6.284c0.229,7.002,3.17,13.496,8.282,18.286c5.113,4.789,11.784,7.298,18.787,7.072
	c18.964-0.618,33.888-16.55,33.27-35.514c-0.389-11.917-5.395-22.969-14.097-31.121c-8.701-8.151-20.045-12.428-31.973-12.037
	c-15.33,0.5-29.548,6.939-40.034,18.133c-10.486,11.194-15.986,25.801-15.485,41.131c0.639,19.597,8.871,37.772,23.18,51.176
	c13.486,12.633,26.371,19.823,49.211,19.823c73.89,0,91.472-59.285,91.472-95.343L307.87,113.527z"/>
</svg>
